<?xml version="1.0" encoding="utf-8"?>

<svg viewBox="0 0 163 50" xmlns="http://www.w3.org/2000/svg" xmlns:xlink="http://www.w3.org/1999/xlink"><style>:root>svg{display:none}:root>svg:target{display:block}</style>
    
<svg id="cart" viewBox="0 0 20 20" fill="none" xmlns="http://www.w3.org/2000/svg">
<path d="M13.75 7.19165C13.4083 7.19165 13.125 6.90832 13.125 6.56665V5.41665C13.125 4.54165 12.75 3.69165 12.1 3.09998C11.4417 2.49998 10.5917 2.22498 9.69167 2.30832C8.19167 2.44998 6.875 3.98332 6.875 5.58332V6.39165C6.875 6.73332 6.59167 7.01665 6.25 7.01665C5.90833 7.01665 5.625 6.73332 5.625 6.39165V5.57498C5.625 3.33332 7.43333 1.26665 9.575 1.05832C10.825 0.941651 12.025 1.33332 12.9417 2.17498C13.85 2.99998 14.375 4.18332 14.375 5.41665V6.56665C14.375 6.90832 14.0917 7.19165 13.75 7.19165Z" fill="black"/>
<path d="M12.5 18.9584H7.5C3.65 18.9584 2.93333 17.1667 2.75 15.425L2.125 10.4334C2.03333 9.53335 2 8.24169 2.875 7.27502C3.625 6.44169 4.86667 6.04169 6.66667 6.04169H13.3333C15.1417 6.04169 16.3833 6.45002 17.125 7.27502C17.9917 8.24169 17.9667 9.53335 17.875 10.4167L17.25 15.425C17.0667 17.1667 16.35 18.9584 12.5 18.9584ZM6.66667 7.29169C5.25833 7.29169 4.29167 7.56669 3.8 8.11669C3.39167 8.56669 3.25833 9.25835 3.36667 10.2917L3.99167 15.2834C4.13333 16.6167 4.5 17.7167 7.5 17.7167H12.5C15.5 17.7167 15.8667 16.625 16.0083 15.3L16.6333 10.2917C16.7417 9.27502 16.6083 8.58335 16.2 8.12502C15.7083 7.56669 14.7417 7.29169 13.3333 7.29169H6.66667Z" fill="black"/>
<path d="M12.85 10.9584C12.3833 10.9584 12.0083 10.5834 12.0083 10.125C12.0083 9.66669 12.3833 9.29169 12.8417 9.29169C13.3 9.29169 13.675 9.66669 13.675 10.125C13.675 10.5834 13.3083 10.9584 12.85 10.9584Z" fill="black"/>
<path d="M7.01665 10.9584C6.54999 10.9584 6.17499 10.5834 6.17499 10.125C6.17499 9.66669 6.54999 9.29169 7.00832 9.29169C7.46665 9.29169 7.84165 9.66669 7.84165 10.125C7.84165 10.5834 7.47499 10.9584 7.01665 10.9584Z" fill="black"/>
</svg>

<svg id="favorite" viewBox="0 0 20 20" fill="none" xmlns="http://www.w3.org/2000/svg">
<path d="M10 18.0416C9.74169 18.0416 9.49169 18.0083 9.28335 17.9333C6.10002 16.8416 1.04169 12.9666 1.04169 7.24165C1.04169 4.32498 3.40002 1.95831 6.30002 1.95831C7.70835 1.95831 9.02502 2.50831 10 3.49165C10.975 2.50831 12.2917 1.95831 13.7 1.95831C16.6 1.95831 18.9584 4.33331 18.9584 7.24165C18.9584 12.975 13.9 16.8416 10.7167 17.9333C10.5084 18.0083 10.2584 18.0416 10 18.0416ZM6.30002 3.20831C4.09169 3.20831 2.29169 5.01665 2.29169 7.24165C2.29169 12.9333 7.76669 16.1 9.69169 16.7583C9.84169 16.8083 10.1667 16.8083 10.3167 16.7583C12.2334 16.1 17.7167 12.9416 17.7167 7.24165C17.7167 5.01665 15.9167 3.20831 13.7084 3.20831C12.4417 3.20831 11.2667 3.79998 10.5084 4.82498C10.275 5.14165 9.74169 5.14165 9.50835 4.82498C8.73335 3.79165 7.56669 3.20831 6.30002 3.20831Z" fill="black"/>
</svg>

<svg id="user" viewBox="0 0 20 20" fill="none" xmlns="http://www.w3.org/2000/svg">
<path d="M9.99998 10.625C7.35831 10.625 5.20831 8.47502 5.20831 5.83335C5.20831 3.19169 7.35831 1.04169 9.99998 1.04169C12.6416 1.04169 14.7916 3.19169 14.7916 5.83335C14.7916 8.47502 12.6416 10.625 9.99998 10.625ZM9.99998 2.29169C8.04998 2.29169 6.45831 3.88335 6.45831 5.83335C6.45831 7.78335 8.04998 9.37502 9.99998 9.37502C11.95 9.37502 13.5416 7.78335 13.5416 5.83335C13.5416 3.88335 11.95 2.29169 9.99998 2.29169Z" fill="black"/>
<path d="M17.1585 18.9583C16.8168 18.9583 16.5335 18.675 16.5335 18.3333C16.5335 15.4583 13.6001 13.125 10.0001 13.125C6.40013 13.125 3.4668 15.4583 3.4668 18.3333C3.4668 18.675 3.18346 18.9583 2.8418 18.9583C2.50013 18.9583 2.2168 18.675 2.2168 18.3333C2.2168 14.775 5.70846 11.875 10.0001 11.875C14.2918 11.875 17.7835 14.775 17.7835 18.3333C17.7835 18.675 17.5001 18.9583 17.1585 18.9583Z" fill="black"/>
</svg>

<svg id="search" viewBox="0 0 21 20" fill="none" xmlns="http://www.w3.org/2000/svg">
<path d="M12.0778 11.9529L15.9583 15.8334" stroke="black" stroke-linecap="round"/>
<path fill-rule="evenodd" clip-rule="evenodd" d="M8.45833 13.3333C11.2198 13.3333 13.4583 11.0947 13.4583 8.33331C13.4583 5.57189 11.2198 3.33331 8.45833 3.33331C5.6969 3.33331 3.45833 5.57189 3.45833 8.33331C3.45833 11.0947 5.6969 13.3333 8.45833 13.3333Z" stroke="black"/>
</svg>

<svg id="slider-arrow-right" viewBox="0 0 37 18" fill="none" xmlns="http://www.w3.org/2000/svg">
<path d="M0 9L36 9" stroke="black" stroke-width="2" stroke-linejoin="round"/>
<path d="M26 1L36 9L26 17" stroke="black" stroke-width="2" stroke-linejoin="round"/>
</svg>

<svg id="play" viewBox="0 0 100 100" fill="none" xmlns="http://www.w3.org/2000/svg">
<circle cx="50" cy="50" r="49.5" stroke="white"/>
<path d="M70 48.2679C71.3333 49.0378 71.3333 50.9622 70 51.732L41.5 68.1865C40.1667 68.9563 38.5 67.9941 38.5 66.4545L38.5 33.5455C38.5 32.0059 40.1667 31.0437 41.5 31.8135L70 48.2679Z" fill="white"/>
</svg>

<svg id="ac-arrow"  viewBox="0 0 21 20" fill="none" xmlns="http://www.w3.org/2000/svg">
<path d="M5.25 7.5L10.25 12.5L15.25 7.5" stroke="black" stroke-linecap="round" stroke-linejoin="round"/>
</svg>

<svg id="nav-arrow-left" viewBox="0 0 55 26" fill="none" xmlns="http://www.w3.org/2000/svg">
<path d="M55 13L0.999999 13" stroke="black" stroke-width="2" stroke-linejoin="round"/>
<path d="M16 25L1 13L16 0.999999" stroke="black" stroke-width="2" stroke-linejoin="round"/>
</svg>

<svg id="filter" viewBox="0 0 24 24" fill="none" xmlns="http://www.w3.org/2000/svg">
<g clip-path="url(#clip0_208_1574)">
<path d="M10 18H14V16H10V18ZM3 6V8H21V6H3ZM6 13H18V11H6V13Z" fill="black"/>
</g>
<defs>
<clipPath id="clip0_208_1574">
<rect width="24" height="24" fill="white"/>
</clipPath>
</defs>
</svg>

</svg>